<?xml version="1.0" standalone="no"?>
<!DOCTYPE svg PUBLIC "-//W3C//DTD SVG 20010904//EN"
 "http://www.w3.org/TR/2001/REC-SVG-20010904/DTD/svg10.dtd">
<svg version="1.0" xmlns="http://www.w3.org/2000/svg"
 width="512.000000pt" height="512.000000pt" viewBox="0 0 512.000000 512.000000"
 preserveAspectRatio="xMidYMid meet">
<metadata>
Created for Present Perfect
</metadata>
<g transform="translate(0.000000,512.000000) scale(0.100000,-0.100000)"
fill="#000000" stroke="none">
<path d="M2280 4604 c-19 -2 -78 -9 -130 -15 -311 -36 -644 -142 -925 -294
-85 -46 -245 -149 -245 -158 0 -3 -15 -16 -32 -28 -18 -12 -50 -39 -71 -59
-21 -20 -42 -36 -47 -36 -4 0 -19 -12 -32 -26 -13 -15 -31 -32 -40 -39 -9 -7
-40 -37 -68 -67 -28 -30 -55 -58 -60 -62 -6 -4 -10 -11 -10 -16 0 -5 -18 -28
-40 -50 -22 -22 -40 -44 -40 -49 0 -5 -9 -16 -20 -26 -11 -9 -20 -22 -20 -28
0 -6 -4 -11 -10 -11 -5 0 -10 -6 -10 -14 0 -8 -4 -18 -10 -21 -5 -3 -10 -15
-10 -25 0 -10 -4 -21 -10 -24 -5 -3 -10 -17 -10 -30 0 -13 -4 -27 -10 -30 -5
-3 -10 -17 -10 -30 0 -13 -4 -27 -10 -30 -5 -3 -10 -19 -10 -35 0 -16 -4 -32
-10 -35 -5 -3 -10 -21 -10 -40 0 -19 -4 -37 -10 -40 -5 -3 -10 -26 -10 -50 0
-24 -4 -47 -10 -50 -5 -3 -10 -30 -10 -60 0 -30 -4 -57 -10 -60 -5 -3 -10 -39
-10 -80 0 -41 -4 -77 -10 -80 -6 -4 -10 -52 -10 -120 0 -68 4 -116 10 -120 6
-3 10 -39 10 -80 0 -41 5 -77 10 -80 6 -3 10 -30 10 -60 0 -30 5 -57 10 -60 6
-3 10 -26 10 -50 0 -24 5 -47 10 -50 6 -3 10 -21 10 -40 0 -19 5 -37 10 -40 6
-3 10 -19 10 -35 0 -16 5 -32 10 -35 6 -3 10 -17 10 -30 0 -13 5 -27 10 -30 6
-3 10 -17 10 -30 0 -13 5 -27 10 -30 6 -3 10 -15 10 -25 0 -10 5 -21 10 -24 6
-3 10 -15 10 -25 0 -10 5 -21 10 -24 6 -3 10 -11 10 -16 0 -6 18 -28 40 -50
22 -22 40 -44 40 -49 0 -5 9 -16 20 -26 11 -9 20 -22 20 -28 0 -6 4 -11 10
-11 5 0 10 -6 10 -14 0 -8 4 -18 10 -21 5 -3 10 -15 10 -25 0 -10 4 -21 10
-24 5 -3 10 -17 10 -30 0 -13 4 -27 10 -30 5 -3 10 -17 10 -30 0 -13 4 -27 10
-30 5 -3 10 -19 10 -35 0 -16 4 -32 10 -35 5 -3 10 -21 10 -40 0 -19 4 -37 10
-40 5 -3 10 -26 10 -50 0 -24 4 -47 10 -50 5 -3 10 -30 10 -60 0 -30 4 -57 10
-60 5 -3 10 -39 10 -80 0 -41 4 -77 10 -80 6 -4 10 -52 10 -120 0 -68 -4 -116
-10 -120 -6 -3 -10 -39 -10 -80 0 -41 -5 -77 -10 -80 -6 -3 -10 -30 -10 -60 0
-30 -5 -57 -10 -60 -6 -3 -10 -26 -10 -50 0 -24 -5 -47 -10 -50 -6 -3 -10 -21
-10 -40 0 -19 -5 -37 -10 -40 -6 -3 -10 -19 -10 -35 0 -16 -5 -32 -10 -35 -6
-3 -10 -17 -10 -30 0 -13 -5 -27 -10 -30 -6 -3 -10 -17 -10 -30 0 -13 -5 -27
-10 -30 -6 -3 -10 -15 -10 -25 0 -10 -5 -21 -10 -24 -6 -3 -10 -15 -10 -25 0
-10 -5 -21 -10 -24 -6 -3 -10 -11 -10 -16 0 -6 -18 -28 -40 -50 -22 -22 -40
-44 -40 -49 0 -5 -9 -16 -20 -26 -11 -9 -20 -22 -20 -28 0 -6 -4 -11 -10 -11
-5 0 -10 -6 -10 -14 0 -8 -4 -18 -10 -21 -5 -3 -10 -15 -10 -25 0 -10 -4 -21
-10 -24 -5 -3 -10 -17 -10 -30 0 -13 -4 -27 -10 -30 -5 -3 -10 -17 -10 -30 0
-13 -4 -27 -10 -30 -5 -3 -10 -19 -10 -35 0 -16 -4 -32 -10 -35 -5 -3 -10 -21
-10 -40 0 -19 -4 -37 -10 -40 -5 -3 -10 -26 -10 -50 0 -24 -4 -47 -10 -50 -5
-3 -10 -30 -10 -60 0 -30 -4 -57 -10 -60 -5 -3 -10 -39 -10 -80 0 -41 -4 -77
-10 -80 -6 -4 -10 -52 -10 -120 0 -68 4 -116 10 -120 6 -3 10 -39 10 -80 0
-41 5 -77 10 -80 6 -3 10 -30 10 -60 0 -30 5 -57 10 -60 6 -3 10 -26 10 -50 0
-24 5 -47 10 -50 6 -3 10 -21 10 -40 0 -19 5 -37 10 -40 6 -3 10 -19 10 -35 0
-16 5 -32 10 -35 6 -3 10 -17 10 -30 0 -13 5 -27 10 -30 6 -3 10 -17 10 -30 0
-13 5 -27 10 -30 6 -3 10 -15 10 -25 0 -10 5 -21 10 -24 6 -3 10 -15 10 -25 0
-10 5 -21 10 -24 6 -3 10 -11 10 -16 0 -6 18 -28 40 -50 22 -22 40 -44 40 -49
0 -5 9 -16 20 -26 11 -9 20 -22 20 -28 0 -6 4 -11 10 -11 5 0 10 -6 10 -14 0
-8 4 -18 10 -21 5 -3 10 -15 10 -25 0 -10 4 -21 10 -24 5 -3 10 -17 10 -30 0
-13 4 -27 10 -30 5 -3 10 -17 10 -30 0 -13 4 -27 10 -30 5 -3 10 -19 10 -35 0
-16 4 -32 10 -35 5 -3 10 -21 10 -40 0 -19 4 -37 10 -40 5 -3 10 -26 10 -50 0
-24 4 -47 10 -50 5 -3 10 -30 10 -60 0 -30 4 -57 10 -60 5 -3 10 -39 10 -80 0
-41 4 -77 10 -80 6 -4 10 -52 10 -120 l0 -114 1280 0 1280 0 0 114 c0 68 4
116 10 120 6 3 10 39 10 80 0 41 5 77 10 80 6 3 10 30 10 60 0 30 5 57 10 60
6 3 10 26 10 50 0 24 5 47 10 50 6 3 10 21 10 40 0 19 5 37 10 40 6 3 10 19
10 35 0 16 5 32 10 35 6 3 10 17 10 30 0 13 5 27 10 30 6 3 10 17 10 30 0 13
5 27 10 30 6 3 10 15 10 25 0 10 5 21 10 24 6 3 10 15 10 25 0 10 5 21 10 24
6 3 10 11 10 16 0 6 18 28 40 50 22 22 40 44 40 49 0 5 9 16 20 26 11 9 20 22
20 28 0 6 4 11 10 11 5 0 10 6 10 14 0 8 4 18 10 21 5 3 10 15 10 25 0 10 4
21 10 24 5 3 10 17 10 30 0 13 4 27 10 30 5 3 10 17 10 30 0 13 4 27 10 30 5
3 10 19 10 35 0 16 4 32 10 35 5 3 10 21 10 40 0 19 4 37 10 40 5 3 10 26 10
50 0 24 4 47 10 50 5 3 10 30 10 60 0 30 4 57 10 60 5 3 10 39 10 80 0 41 4
77 10 80 6 4 10 52 10 120 0 68 -4 116 -10 120 -6 3 -10 39 -10 80 0 41 -5 77
-10 80 -6 3 -10 30 -10 60 0 30 -5 57 -10 60 -6 3 -10 26 -10 50 0 24 -5 47
-10 50 -6 3 -10 21 -10 40 0 19 -5 37 -10 40 -6 3 -10 19 -10 35 0 16 -5 32
-10 35 -6 3 -10 17 -10 30 0 13 -5 27 -10 30 -6 3 -10 17 -10 30 0 13 -5 27
-10 30 -6 3 -10 15 -10 25 0 10 -5 21 -10 24 -6 3 -10 15 -10 25 0 10 -5 21
-10 24 -6 3 -10 11 -10 16 0 6 -18 28 -40 50 -22 22 -40 44 -40 49 0 5 -9 16
-20 26 -11 9 -20 22 -20 28 0 6 -4 11 -10 11 -5 0 -10 6 -10 14 0 8 -4 18 -10
21 -5 3 -10 15 -10 25 0 10 -4 21 -10 24 -5 3 -10 17 -10 30 0 13 -4 27 -10
30 -5 3 -10 17 -10 30 0 13 -4 27 -10 30 -5 3 -10 19 -10 35 0 16 -4 32 -10
35 -5 3 -10 21 -10 40 0 19 -4 37 -10 40 -5 3 -10 26 -10 50 0 24 -4 47 -10
50 -5 3 -10 30 -10 60 0 30 -4 57 -10 60 -5 3 -10 39 -10 80 0 41 -4 77 -10
80 -6 4 -10 52 -10 120 0 68 4 116 10 120 6 3 10 39 10 80 0 41 5 77 10 80 6
3 10 30 10 60 0 30 5 57 10 60 6 3 10 26 10 50 0 24 5 47 10 50 6 3 10 21 10
40 0 19 5 37 10 40 6 3 10 19 10 35 0 16 5 32 10 35 6 3 10 17 10 30 0 13 5
27 10 30 6 3 10 17 10 30 0 13 5 27 10 30 6 3 10 15 10 25 0 10 5 21 10 24 6
3 10 15 10 25 0 10 5 21 10 24 6 3 10 11 10 16 0 6 18 28 40 50 22 22 40 44
40 49 0 5 9 16 20 26 11 9 20 22 20 28 0 6 4 11 10 11 5 0 10 6 10 14 0 8 4
18 10 21 5 3 10 15 10 25 0 10 4 21 10 24 5 3 10 17 10 30 0 13 4 27 10 30 5
3 10 17 10 30 0 13 4 27 10 30 5 3 10 19 10 35 0 16 4 32 10 35 5 3 10 21 10
40 0 19 4 37 10 40 5 3 10 26 10 50 0 24 4 47 10 50 5 3 10 30 10 60 0 30 4
57 10 60 5 3 10 39 10 80 0 41 4 77 10 80 6 4 10 52 10 120 l0 114 -1280 0
-1280 0 0 -114 c0 -68 -4 -116 -10 -120 -6 -3 -10 -39 -10 -80 0 -41 -5 -77
-10 -80 -6 -3 -10 -30 -10 -60 0 -30 -5 -57 -10 -60 -6 -3 -10 -26 -10 -50 0
-24 -5 -47 -10 -50 -6 -3 -10 -21 -10 -40 0 -19 -5 -37 -10 -40 -6 -3 -10 -19
-10 -35 0 -16 -5 -32 -10 -35 -6 -3 -10 -17 -10 -30 0 -13 -5 -27 -10 -30 -6
-3 -10 -17 -10 -30 0 -13 -5 -27 -10 -30 -6 -3 -10 -15 -10 -25 0 -10 -5 -21
-10 -24 -6 -3 -10 -15 -10 -25 0 -10 -5 -21 -10 -24 -6 -3 -10 -11 -10 -16 0
-6 -18 -28 -40 -50 -22 -22 -40 -44 -40 -49 0 -5 -9 -16 -20 -26 -11 -9 -20
-22 -20 -28 0 -6 -4 -11 -10 -11 -5 0 -10 -6 -10 -14 0 -8 -4 -18 -10 -21 -5
-3 -10 -15 -10 -25 0 -10 -4 -21 -10 -24 -5 -3 -10 -17 -10 -30 0 -13 -4 -27
-10 -30 -5 -3 -10 -17 -10 -30 0 -13 -4 -27 -10 -30 -5 -3 -10 -19 -10 -35 0
-16 -4 -32 -10 -35 -5 -3 -10 -21 -10 -40 0 -19 -4 -37 -10 -40 -5 -3 -10 -26
-10 -50 0 -24 -4 -47 -10 -50 -5 -3 -10 -30 -10 -60 0 -30 -4 -57 -10 -60 -5
-3 -10 -39 -10 -80 0 -41 -4 -77 -10 -80 -6 -4 -10 -52 -10 -120 0 -68 4 -116
10 -120 6 -3 10 -39 10 -80 0 -41 5 -77 10 -80 6 -3 10 -30 10 -60 0 -30 5
-57 10 -60 6 -3 10 -26 10 -50 0 -24 5 -47 10 -50 6 -3 10 -21 10 -40 0 -19 5
-37 10 -40 6 -3 10 -19 10 -35 0 -16 5 -32 10 -35 6 -3 10 -17 10 -30 0 -13 5
-27 10 -30 6 -3 10 -17 10 -30 0 -13 5 -27 10 -30 6 -3 10 -15 10 -25 0 -10 5
-21 10 -24 6 -3 10 -15 10 -25 0 -10 5 -21 10 -24 6 -3 10 -11 10 -16 0 -6 18
-28 40 -50 22 -22 40 -44 40 -49 0 -5 9 -16 20 -26 11 -9 20 -22 20 -28 0 -6
4 -11 10 -11 5 0 10 -6 10 -14 0 -8 4 -18 10 -21 5 -3 10 -15 10 -25 0 -10 4
-21 10 -24 5 -3 10 -17 10 -30 0 -13 4 -27 10 -30 5 -3 10 -17 10 -30 0 -13 4
-27 10 -30 5 -3 10 -19 10 -35 0 -16 4 -32 10 -35 5 -3 10 -21 10 -40 0 -19 4
-37 10 -40 5 -3 10 -26 10 -50 0 -24 4 -47 10 -50 5 -3 10 -30 10 -60 0 -30 4
-57 10 -60 5 -3 10 -39 10 -80 0 -41 4 -77 10 -80 6 -4 10 -52 10 -120 l0
-114 1280 0 1280 0 0 2560 0 2560 -1280 0 c-704 0 -1299 -2 -1320 -4z"/>
</g>
</svg>